<svg enable-background="new 0 0 420.9 123.9" viewBox="0 0 420.9 123.9" xmlns="http://www.w3.org/2000/svg" xmlns:xlink="http://www.w3.org/1999/xlink"><clipPath id="a"><path d="m8.9 13.9h88v101.7h-88z"/></clipPath><clipPath id="b"><path d="m8.9 24.9h88v79.3h-88z"/></clipPath><clipPath id="c"><path d="m8.9 13.9h88v101.7h-88z"/></clipPath><g fill="#1d1d1b"><path d="m136.4 30.3-3.5-.7v.9c0 .8-.4 1.5-.9 2l-1.4 1.4c-.5.5-1.3.8-2.1.8h-3.6c-.8 0-1.6-.3-2.1-.8l-1.5-1.4c-.6-.5-.9-1.2-.9-2v-8.8c0-.8.4-1.4.9-2l1.5-1.4c.5-.6 1.3-.8 2.1-.8h3.6c.8 0 1.5.3 2.1.8l1.4 1.4c.6.6.9 1.3.9 2v.9l3.5-.7v-1c0-1.1-.4-2.2-1.2-3l-2.3-2.3c-.8-.8-1.8-1.2-3-1.2h-6.5c-1.1 0-2.2.4-3 1.2l-2.3 2.3c-.8.8-1.2 1.9-1.2 3v10.4c0 1.1.4 2.2 1.2 3l2.3 2.3c.8.8 1.8 1.2 3 1.2h6.5c1.1 0 2.2-.4 3-1.2l2.3-2.3c.8-.8 1.2-1.8 1.2-3z"/><path d="m148.9 37.8h6.5c1.1 0 2.2-.4 3-1.2l2.3-2.3c.8-.8 1.2-1.8 1.2-3v-10.4c0-1.1-.4-2.2-1.2-3l-2.3-2.3c-.8-.8-1.8-1.2-3-1.2h-6.5c-1.1 0-2.2.4-3 1.2l-2.3 2.3c-.8.8-1.2 1.9-1.2 3v10.4c0 1.1.4 2.2 1.2 3l2.3 2.3c.9.7 1.9 1.2 3 1.2zm1.5-3c-.8 0-1.5-.3-2.1-.8l-1.5-1.4c-.6-.5-.9-1.2-.9-2v-8.9c0-.8.4-1.4.9-2l1.5-1.4c.5-.6 1.3-.8 2.1-.8h3.7c.8 0 1.5.3 2.1.8l1.4 1.4c.6.6.9 1.2.9 2v8.8c0 .8-.4 1.5-.9 2l-1.5 1.4c-.5.5-1.3.8-2.1.8z"/><path d="m185.7 35.1-3.3-5.9c.3-.2.6-.4.8-.6l2.3-2.1c.8-.8 1.2-1.8 1.2-3v-2.8c0-1.1-.4-2.2-1.2-3l-2.3-2.1c-.8-.8-1.8-1.2-3-1.2h-11.6l.5 2.7v18l-.5 2.7h4.6l-.5-2.7v-5.3h6.2l2.9 5.3.9 2.7h4.9zm-13.1-17.7h6.2c.8 0 1.5.3 2.1.8l1.5 1.4c.6.6.9 1.2.9 2v1.1c0 .7-.3 1.5-.9 2l-1.5 1.3c-.6.5-1.3.9-2.1.9h-6.2z"/><path d="m209.8 17.8-2.3-2.2c-.8-.8-1.8-1.2-3-1.2h-11.7l.5 2.7v18l-.5 2.7h4.6l-.5-2.7v-4h7.6c1.1 0 2.1-.5 3-1.2l2.3-2.2c.8-.8 1.2-1.9 1.2-3v-3.9c0-1.2-.4-2.2-1.2-3zm-2.3 6.1c0 .8-.3 1.5-.9 2l-1.5 1.3c-.6.5-1.3.9-2.1.9h-6.2v-10.6h6.2c.8 0 1.5.3 2.1.9l1.5 1.4c.6.5.9 1.2.9 2z"/><path d="m222.8 37.8h6.5c1.1 0 2.2-.4 3-1.2l2.3-2.3c.8-.8 1.2-1.8 1.2-3v-10.4c0-1.1-.4-2.2-1.2-3l-2.3-2.3c-.8-.8-1.8-1.2-3-1.2h-6.5c-1.1 0-2.2.4-3 1.2l-2.3 2.3c-.8.8-1.2 1.9-1.2 3v10.4c0 1.1.4 2.2 1.2 3l2.3 2.3c.8.7 1.9 1.2 3 1.2zm1.4-3c-.8 0-1.5-.3-2.1-.8l-1.5-1.4c-.6-.5-.9-1.2-.9-2v-8.9c0-.8.4-1.4.9-2l1.5-1.4c.5-.6 1.3-.8 2.1-.8h3.7c.8 0 1.5.3 2.1.8l1.4 1.4c.6.6.9 1.2.9 2v8.8c0 .8-.4 1.5-.9 2l-1.4 1.4c-.5.5-1.3.8-2.1.8z"/><path d="m259.5 35.1-3.3-5.9c.3-.2.6-.4.8-.6l2.3-2.1c.8-.8 1.2-1.8 1.2-3v-2.8c0-1.1-.4-2.2-1.2-3l-2.3-2.1c-.8-.8-1.8-1.2-3-1.2h-11.5l.5 2.7v18l-.5 2.7h4.6l-.5-2.7v-5.3h6.2l2.9 5.3.9 2.7h4.9zm-13-17.7h6.2c.8 0 1.5.3 2.1.8l1.5 1.4c.6.6.9 1.2.9 2v1.1c0 .7-.3 1.5-.9 2l-1.5 1.3c-.6.5-1.3.9-2.1.9h-6.2z"/><path d="m286 35.1-6.7-18.4.2-2.3h-7.2l.2 2.3-6.7 18.4-1.5 2.7h5.1l.1-2.7 1.2-3.5h10.2l1.2 3.5.1 2.7h5.1zm-14.2-6.4 4.1-11.6 4.1 11.6z"/><path d="m297.4 37.8h4.6l-.6-2.7v-17.6h5.5l2.8.7-.8-3.7h-18.3l-.7 3.7 2.8-.7h5.2v17.6z"/><path d="m314.9 37.8h4.6l-.5-2.7v-18l.5-2.7h-4.6l.5 2.7v18z"/><path d="m332.3 37.8h6.9l-.2-2.3 6.6-18.4 1.4-2.7h-5l-.1 2.7-6.1 17.5-6.1-17.5-.1-2.7h-5l1.4 2.7 6.6 18.4z"/><path d="m357.9 37.8h6.5c1.1 0 2.2-.4 3-1.2l2.3-2.3c.8-.8 1.2-1.8 1.2-3v-10.4c0-1.1-.4-2.2-1.2-3l-2.3-2.3c-.8-.8-1.8-1.2-3-1.2h-6.5c-1.1 0-2.2.4-3 1.2l-2.3 2.3c-.8.8-1.2 1.9-1.2 3v10.4c0 1.1.4 2.2 1.2 3l2.3 2.3c.8.7 1.8 1.2 3 1.2zm1.4-3c-.8 0-1.5-.3-2.1-.8l-1.4-1.5c-.6-.5-.9-1.2-.9-2v-8.8c0-.8.4-1.4.9-2l1.5-1.4c.5-.6 1.3-.8 2.1-.8h3.7c.8 0 1.5.3 2.1.8l1.4 1.4c.6.6.9 1.2.9 2v8.8c0 .8-.4 1.5-.9 2l-1.4 1.4c-.5.5-1.3.8-2.1.8z"/><path d="m136.4 68-3.5-.7v.9c0 .8-.4 1.5-.9 2l-1.4 1.4c-.5.5-1.3.8-2.1.8h-3.6c-.8 0-1.6-.3-2.1-.8l-1.5-1.4c-.6-.5-.9-1.2-.9-2v-8.8c0-.8.4-1.4.9-2l1.5-1.4c.5-.6 1.3-.8 2.1-.8h3.6c.8 0 1.5.3 2.1.8l1.4 1.4c.6.6.9 1.3.9 2v.9l3.5-.7v-1c0-1.1-.4-2.2-1.2-3l-2.3-2.3c-.8-.8-1.8-1.2-3-1.2h-6.5c-1.1 0-2.2.4-3 1.2l-2.3 2.3c-.8.8-1.2 1.9-1.2 3v10.4c0 1.1.4 2.2 1.2 3l2.3 2.3c.8.8 1.8 1.2 3 1.2h6.5c1.1 0 2.2-.4 3-1.2l2.3-2.3c.8-.8 1.2-1.8 1.2-3z"/><path d="m148.9 75.5h6.5c1.1 0 2.2-.4 3-1.2l2.3-2.3c.8-.8 1.2-1.8 1.2-3v-10.3c0-1.1-.4-2.2-1.2-3l-2.3-2.3c-.8-.8-1.8-1.2-3-1.2h-6.5c-1.1 0-2.2.4-3 1.2l-2.3 2.3c-.8.8-1.2 1.9-1.2 3v10.3c0 1.1.4 2.2 1.2 3l2.3 2.3c.9.8 1.9 1.2 3 1.2zm1.5-3c-.8 0-1.5-.3-2.1-.8l-1.5-1.4c-.6-.5-.9-1.2-.9-2v-8.8c0-.8.4-1.4.9-2l1.5-1.5c.5-.6 1.3-.8 2.1-.8h3.7c.8 0 1.5.3 2.1.8l1.4 1.4c.6.6.9 1.2.9 2v8.8c0 .8-.4 1.5-.9 2l-1.5 1.5c-.5.5-1.3.8-2.1.8z"/><path d="m168.6 75.5h4.6l-.5-2.7v-15l13.3 17.6h3.2v-20.6l.5-2.7h-4.6l.5 2.7v15.1l-13.5-17.7h-3.6l.5 2.7v18z"/><path d="m196.4 75.5h10.9c1.2 0 2.3-.6 3.1-1.2l1.9-1.5c.8-.7 1.2-1.8 1.2-3v-1.8c0-1.6-1.8-4-3.4-4.4l-8.8-2.3c-.8-.2-2-1.3-2-2.4v-.7c0-.5.2-1.1.6-1.4l1.4-1.1c.5-.4 1-.5 1.6-.5h6.3l3.2.6-.6-3.5h-9.8c-1.2 0-2.3.6-3.1 1.2l-1.9 1.5c-.8.7-1.2 1.8-1.2 3v1.4c0 1.9 1.8 4.2 3.7 4.8l8.5 2.3c.8.2 2 1.3 2 2.1v1.1c0 .5-.2 1-.6 1.4l-1.5.9c-.4.3-.9.5-1.4.5h-7.6l-3.2-.5z"/><path d="m224.1 75.5h4.6l-.6-2.7v-17.6h5.5l2.8.7-.8-3.7h-18.2l-.7 3.7 2.8-.7h5.2v17.6z"/><path d="m258.2 72.8-3.3-5.9c.3-.2.6-.4.8-.6l2.3-2.1c.8-.8 1.2-1.8 1.2-3v-2.8c0-1.1-.4-2.2-1.2-3l-2.3-2.1c-.8-.8-1.8-1.2-3-1.2h-11.6l.5 2.7v18l-.5 2.7h4.6l-.5-2.7v-5.3h6.2l2.9 5.3.9 2.7h4.9zm-13-17.7h6.2c.8 0 1.5.3 2.1.8l1.5 1.4c.6.6.9 1.2.9 2v1.2c0 .7-.3 1.5-.9 2l-1.5 1.3c-.6.5-1.3.9-2.1.9h-6.2z"/><path d="m272 75.5h6.2c1.1 0 2.2-.4 3-1.2l2.3-2.3c.8-.8 1.2-1.8 1.2-3v-14.2l.5-2.7h-4.6l.6 2.7v13.4c0 .8-.3 1.4-.9 2l-1.5 1.5c-.5.5-1.2.8-2 .8h-3.5c-.7 0-1.5-.2-2-.8l-1.5-1.5c-.5-.5-.9-1.3-.9-2v-13.4l.6-2.7h-4.6l.5 2.7v14.2c0 1.1.4 2.2 1.2 3l2.3 2.3c.9.8 2 1.2 3.1 1.2z"/><path d="m309.9 54.8 1.8-2.7h-5.1l-.5 2.7-5.8 10.4-5.8-10.4-.5-2.7h-5.1l1.8 2.7 7.8 13.8v4.3l-.5 2.7h4.6l-.6-2.7v-4.3z"/><path d="m330 72.5h-10.2v-7.3h8.4l1.8.4v-3.7l-1.8.4h-8.4v-7.2h9.8l2.5.7-1-3.6h-15.3l.5 2.7v18l-.5 2.7h16.1l1.3-3.6z"/><path d="m338.3 75.5h4.6l-.5-2.7v-15l13.3 17.6h3.2v-20.6l.5-2.7h-4.6l.5 2.7v15.1l-13.4-17.7h-3.6l.5 2.6v18z"/><path d="m384.3 55.7-2.3-2.3c-.8-.8-1.8-1.2-3-1.2h-12.7l.5 2.6v18l-.5 2.7h12.8c1.1 0 2.2-.4 3-1.2l2.3-2.3c.8-.8 1.2-1.8 1.2-3v-10.3c0-1.2-.4-2.2-1.3-3zm-2.2 12.5c0 .8-.4 1.5-.9 2l-1.4 1.4c-.5.5-1.3.8-2.1.8h-7.3v-17.2h7.3c.8 0 1.5.3 2.1.8l1.4 1.4c.6.6.9 1.2.9 2z"/><path d="m398.4 75.5h6.5c1.1 0 2.2-.4 3-1.2l2.3-2.3c.8-.8 1.2-1.8 1.2-3v-10.3c0-1.1-.4-2.2-1.2-3l-2.3-2.3c-.8-.8-1.8-1.2-3-1.2h-6.5c-1.1 0-2.2.4-3 1.2l-2.3 2.3c-.8.8-1.2 1.9-1.2 3v10.3c0 1.1.4 2.2 1.2 3l2.3 2.3c.8.8 1.9 1.2 3 1.2zm1.4-3c-.8 0-1.5-.3-2.1-.8l-1.5-1.4c-.6-.5-.9-1.2-.9-2v-8.8c0-.8.4-1.4.9-2l1.5-1.4c.5-.6 1.3-.8 2.1-.8h3.7c.8 0 1.5.3 2.1.8l1.4 1.4c.6.6.9 1.2.9 2v8.8c0 .8-.4 1.5-.9 2l-1.4 1.4c-.5.5-1.3.8-2.1.8z"/><path d="m117 113.4h10.9c1.2 0 2.3-.6 3.1-1.2l1.9-1.5c.8-.7 1.2-1.8 1.2-3v-1.7c0-1.6-1.8-4-3.4-4.4l-8.8-2.3c-.8-.2-2-1.3-2-2.4v-.9c0-.5.2-1.1.6-1.4l1.4-1.1c.5-.4 1-.5 1.6-.5h6.3l3.2.6-.6-3.5h-9.8c-1.2 0-2.3.6-3.1 1.2l-1.9 1.5c-.8.7-1.2 1.8-1.2 3v1.4c0 1.9 1.8 4.2 3.7 4.8l8.5 2.3c.8.2 2 1.3 2 2.1v1c0 .5-.2 1-.6 1.4l-1.4 1.1c-.4.3-.9.5-1.4.5h-7.6l-3.2-.6z"/><path d="m145.7 113.4h6.5c1.1 0 2.2-.4 3-1.2l2.3-2.3c.8-.8 1.2-1.8 1.2-3v-10.4c0-1.1-.4-2.2-1.2-3l-2.3-2.3c-.8-.8-1.8-1.2-3-1.2h-6.5c-1.1 0-2.2.4-3 1.2l-2.3 2.3c-.8.8-1.2 1.9-1.2 3v10.4c0 1.1.4 2.2 1.2 3l2.3 2.3c.9.7 1.9 1.2 3 1.2zm1.5-3c-.8 0-1.5-.3-2.1-.8l-1.5-1.4c-.6-.5-.9-1.2-.9-2v-8.9c0-.8.4-1.4.9-2l1.5-1.4c.5-.6 1.3-.8 2.1-.8h3.7c.8 0 1.5.3 2.1.8l1.4 1.4c.6.6.9 1.2.9 2v8.8c0 .8-.4 1.5-.9 2l-1.4 1.4c-.5.5-1.3.8-2.1.8z"/><path d="m177.4 110.3h-8v-17.7l.5-2.6h-4.6l.5 2.7v18l-.4 2.7h13.8l1.3-3.7z"/><path d="m191.9 113.4h6.2c1.1 0 2.2-.4 3-1.2l2.3-2.3c.8-.8 1.2-1.8 1.2-3v-14.2l.5-2.7h-4.6l.5 2.7v13.4c0 .8-.3 1.4-.9 2l-1.5 1.5c-.5.5-1.2.8-2 .8h-3.5c-.7 0-1.5-.2-2-.8l-1.5-1.5c-.5-.5-.9-1.3-.9-2v-13.4l.6-2.7h-4.6l.5 2.7v14.2c0 1.1.4 2.2 1.2 3l2.3 2.3c1 .7 2 1.2 3.2 1.2z"/><path d="m230.8 105.9-3.5-.7v.9c0 .8-.4 1.5-.9 2l-1.4 1.4c-.5.5-1.3.8-2.1.8h-3.6c-.8 0-1.6-.3-2.1-.8l-1.4-1.4c-.6-.5-.9-1.2-.9-2v-8.8c0-.8.4-1.4.9-2l1.5-1.4c.5-.6 1.3-.8 2.1-.8h3.6c.8 0 1.5.3 2.1.8l1.4 1.4c.6.6.9 1.3.9 2v.9l3.4-.7v-1c0-1.1-.4-2.2-1.2-3l-2.3-2.3c-.8-.8-1.8-1.2-3-1.2h-6.5c-1.1 0-2.2.4-3 1.2l-2.3 2.3c-.8.8-1.2 1.9-1.2 3v10.4c0 1.1.4 2.2 1.2 3l2.3 2.3c.8.8 1.8 1.2 3 1.2h6.5c1.1 0 2.2-.4 3-1.2l2.3-2.3c.8-.8 1.2-1.8 1.2-3z"/><path d="m237.6 113.4h4.6l-.5-2.7v-18l.5-2.7h-4.6l.5 2.7v18z"/><path d="m255.9 113.4h6.5c1.1 0 2.2-.4 3-1.2l2.3-2.3c.8-.8 1.2-1.8 1.2-3v-10.4c0-1.1-.4-2.2-1.2-3l-2.3-2.3c-.8-.8-1.8-1.2-3-1.2h-6.5c-1.1 0-2.2.4-3 1.2l-2.3 2.3c-.8.8-1.2 1.9-1.2 3v10.4c0 1.1.4 2.2 1.2 3l2.3 2.3c.8.7 1.8 1.2 3 1.2zm1.4-3c-.8 0-1.5-.3-2.1-.8l-1.5-1.4c-.6-.5-.9-1.2-.9-2v-8.9c0-.8.4-1.4.9-2l1.5-1.4c.5-.6 1.3-.8 2.1-.8h3.7c.8 0 1.5.3 2.1.8l1.4 1.4c.6.6.9 1.2.9 2v8.8c0 .8-.4 1.5-.9 2l-1.4 1.4c-.5.5-1.3.8-2.1.8z"/><path d="m275.5 113.4h4.6l-.5-2.7v-15l13.2 17.7h3.2v-20.7l.5-2.7h-4.6l.5 2.7v15.1l-13.3-17.8h-3.6l.5 2.7v18z"/><path d="m317.8 110.4h-10.3v-7.4h8.4l1.8.4v-3.7l-1.8.4h-8.4v-7.1h9.8l2.5.7-1-3.6h-15.3l.5 2.7v18l-.5 2.6h16.1l1.3-3.6z"/><path d="m325.8 113.4h10.9c1.2 0 2.3-.6 3.1-1.2l1.9-1.5c.8-.7 1.2-1.8 1.2-3v-1.7c0-1.6-1.8-4-3.4-4.4l-8.8-2.3c-.8-.2-2-1.3-2-2.4v-.9c0-.5.2-1.1.6-1.4l1.4-1.1c.5-.4 1-.5 1.6-.5h6.3l3.2.6-.6-3.5h-9.8c-1.2 0-2.3.6-3.1 1.2l-1.9 1.5c-.8.7-1.2 1.8-1.2 3v1.4c0 1.9 1.8 4.2 3.7 4.8l8.5 2.3c.8.2 2 1.3 2 2.1v1c0 .5-.2 1-.6 1.4l-1.4 1.1c-.4.3-.9.5-1.4.5h-7.6l-3.2-.6z"/></g><g clip-path="url(#a)"><path d="m53 115.5v-5.6l-44.1-28.1v5.6zm0-39.6v5.7l17.5-11.1-4.4-2.8zm.1-62v5.6l44.1 28.1v-5.6zm0 39.6v-5.7l-17.5 11.2 4.5 2.8z" fill="#0078c1"/></g><g clip-path="url(#b)" fill="#0078c1"><path d="m53 104.2v-5.7l-44.1-28.1v5.7zm0-11.3 26.4-16.8-4.4-2.9-22 14zm.1-67.7v5.7l44.1 28.1v-5.7zm0 11.3-26.4 16.8 4.5 2.8 21.9-14z"/><path d="m53 92.9v-5.7l-44.1-28.1v5.7zm0 11.3 35.3-22.5-4.5-2.9-30.8 19.8zm.1-67.7v5.7l44.1 28.1v-5.7zm0-11.3-35.3 22.5 4.4 2.9 30.9-19.7z"/></g><g clip-path="url(#c)"><path d="m53 81.6v-5.7l-44.1-28.1v5.7zm0 33.9 44.2-28.1-4.5-2.8-39.7 25.3zm.1-67.7v5.7l44.1 28.1v-5.6zm0-33.9-44.2 28.1 4.4 2.8 39.8-25.3z" fill="#0078c1"/></g></svg>