<svg height="30" viewBox="0 0 30 30" width="30" xmlns="http://www.w3.org/2000/svg"><path d="m15 0c-8.25 0-15 6.75-15 15 0 3.25 1 6.375 2.875 8.75l-1.875 5.625 5.75-1.875c2.375 1.625 5.25 2.5 8.25 2.5 8.25 0 15-6.75 15-15s-6.75-15-15-15zm0 0" fill="#4caf50"/><path d="m23.75 21.125c-.375 1-1.75 1.875-3 2.125-.75.125-1.75.25-5.25-1.125-4.375-1.875-7.25-6.25-7.5-6.625-.125-.25-1.75-2.25-1.75-4.5s1.125-3.25 1.5-3.625 1-.5 1.625-.5h.5c.5 0 .625 0 1 .75l1.375 3.25c.125.25.25.5.125.75-.25.375-.375.5-.625.75s-.375.5-.625.75-.375.5-.125 1c.25.375 1.125 1.875 2.375 3 1.625 1.5 3 2 3.5 2.125.375.125.75.125 1-.125.375-.375.75-1 1.125-1.5.25-.375.625-.5 1.125-.375.375.125 2.5 1.25 3 1.375.5.25.75.375.875.5s.125 1-.25 2zm0 0" fill="#fafafa"/></svg>