<svg enable-background="new 0 0 90 90" viewBox="0 0 90 90" xmlns="http://www.w3.org/2000/svg" xmlns:xlink="http://www.w3.org/1999/xlink"><clipPath id="a"><path d="m8.1 2.9h73.4v84.8h-73.4z"/></clipPath><clipPath id="b"><path d="m8.1 12h73.4v66.1h-73.4z"/></clipPath><clipPath id="c"><path d="m8.1 2.9h73.4v84.8h-73.4z"/></clipPath><g clip-path="url(#a)"><path d="m44.9 87.6v-4.7l-36.8-23.4v4.7zm0-33v4.8l14.6-9.3-3.7-2.3zm0-51.7v4.7l36.8 23.4v-4.7zm0 33v-4.8l-14.6 9.3 3.8 2.3z" fill="#0078c1"/></g><g clip-path="url(#b)" fill="#0078c1"><path d="m44.9 78.2v-4.8l-36.8-23.4v4.8zm0-9.4 22-14-3.7-2.4-18.3 11.6zm0-56.5v4.8l36.8 23.4v-4.8zm0 9.4-22 14 3.8 2.3 18.3-11.7z"/><path d="m44.9 68.8v-4.8l-36.8-23.4v4.8zm0 9.4 29.4-18.8-3.8-2.4-25.6 16.5zm0-56.5v4.8l36.8 23.4v-4.8zm0-9.4-29.4 18.8 3.7 2.4 25.8-16.4z"/></g><g clip-path="url(#c)"><path d="m44.9 59.3v-4.8l-36.8-23.4v4.8zm0 28.3 36.9-23.4-3.8-2.4-33.1 21.1zm0-56.5v4.8l36.8 23.4v-4.7zm0-28.2-36.8 23.4 3.7 2.3 33.1-21.1z" fill="#0078c1"/></g></svg>